<?xml version="1.0" encoding="UTF-8" standalone="no"?>
<!DOCTYPE svg PUBLIC "-//W3C//DTD SVG 1.1//EN" "http://www.w3.org/Graphics/SVG/1.1/DTD/svg11.dtd">
<svg width="100%" height="100%" viewBox="0 0 512 512" version="1.1" xmlns="http://www.w3.org/2000/svg" xmlns:xlink="http://www.w3.org/1999/xlink" xml:space="preserve" xmlns:serif="http://www.serif.com/" style="fill-rule:evenodd;clip-rule:evenodd;stroke-linejoin:round;stroke-miterlimit:2;">
    <g transform="matrix(1,0,0,1,-52.6,16.697801)">
        <g transform="matrix(12.423362,0,0,12.423362,-1094.022053,-2419.278546)">
            <path d="M117.67,223.658C117.404,224.925 116.504,226.275 114.97,227.708C114.737,228.075 113.82,228.558 112.22,229.158C110.387,229.858 108.804,230.158 107.47,230.058C104.97,229.892 103.004,228.458 101.57,225.758C100.27,223.258 99.62,220.192 99.62,216.558C99.62,212.625 100.354,209.175 101.82,206.208C103.454,202.942 105.637,201.108 108.37,200.708C108.904,200.642 109.42,200.608 109.92,200.608C113.887,200.608 116.07,203.042 116.47,207.908C116.67,210.142 115.787,212.575 113.82,215.208C111.687,218.108 108.954,220.142 105.62,221.308C105.987,222.642 106.27,223.508 106.47,223.908C106.937,224.742 107.57,225.158 108.37,225.158C109.137,225.158 109.954,224.858 110.82,224.258C111.554,223.758 112.054,223.275 112.32,222.808C112.454,222.742 112.587,222.367 112.72,221.683C112.854,221 113.204,220.508 113.77,220.208C113.97,220.108 114.204,220.058 114.47,220.058C115.27,220.058 116.045,220.45 116.795,221.233C117.545,222.017 117.837,222.825 117.67,223.658ZM109.82,206.058C108.487,206.058 107.404,207.008 106.57,208.908C105.47,211.442 105.02,213.942 105.22,216.408C106.787,215.908 108.237,214.742 109.57,212.908C110.904,211.075 111.57,209.442 111.57,208.008C111.57,206.708 110.987,206.058 109.82,206.058Z" style="fill-rule:nonzero;"/>
        </g>
        <g transform="matrix(1.542522,0,0,1.542522,-211.346296,20.713745)">
            <path d="M397.595,20.464C397.729,22.697 396.962,26.614 395.295,32.214C393.529,38.214 391.529,43.331 389.295,47.564C386.595,52.597 384.129,55.114 381.895,55.114C380.762,55.114 379.67,54.614 378.62,53.614C377.57,52.614 377.045,51.581 377.045,50.514C377.045,50.014 377.195,49.564 377.495,49.164C376.962,34.797 376.762,25.031 376.895,19.864C376.195,18.731 375.845,17.881 375.845,17.314C375.845,16.514 376.295,15.814 377.195,15.214C377.995,14.647 378.829,14.364 379.695,14.364C380.495,14.364 381.162,14.597 381.695,15.064C386.029,13.364 388.912,12.514 390.345,12.514C391.112,12.514 391.862,12.697 392.595,13.064C393.695,13.597 394.745,14.531 395.745,15.864C396.879,17.397 397.495,18.931 397.595,20.464ZM390.795,18.964C390.462,18.564 390.029,18.364 389.495,18.364C388.462,18.364 386.429,19.564 383.395,21.964C383.195,24.464 383.095,27.231 383.095,30.264C383.095,34.597 383.295,39.064 383.695,43.664C385.462,39.364 387.095,34.847 388.595,30.114C390.195,25.014 390.995,21.614 390.995,19.914C390.995,19.447 390.929,19.131 390.795,18.964Z" style="fill-rule:nonzero;"/>
            <path d="M443.695,52.964C442.929,54.064 441.812,54.614 440.345,54.614C439.012,54.614 437.629,54.181 436.195,53.314C434.895,52.547 434.162,51.797 433.995,51.064C433.929,50.797 433.895,50.547 433.895,50.314C433.895,49.781 434.12,49.181 434.57,48.514C435.02,47.847 435.229,47.264 435.195,46.764L433.695,29.964L425.095,49.364C424.995,49.631 424.945,49.947 424.945,50.314C424.945,50.581 424.987,50.997 425.07,51.564C425.154,52.131 425.195,52.564 425.195,52.864C425.195,53.631 424.895,54.214 424.295,54.614C423.429,55.214 422.412,55.514 421.245,55.514C420.079,55.514 419.02,55.206 418.07,54.589C417.12,53.972 416.529,53.164 416.295,52.164C416.229,51.864 416.195,51.597 416.195,51.364C416.195,51.131 416.229,50.847 416.295,50.514C416.362,50.181 416.395,49.931 416.395,49.764C416.395,49.564 416.362,49.364 416.295,49.164L409.095,29.964L409.795,48.064C409.829,48.531 409.945,49.189 410.145,50.039C410.345,50.889 410.445,51.514 410.445,51.914C410.445,53.147 409.529,54.114 407.695,54.814C407.462,54.881 407.179,54.914 406.845,54.914C405.812,54.914 404.745,54.564 403.645,53.864C402.379,53.097 401.562,52.097 401.195,50.864C401.129,50.664 401.095,50.481 401.095,50.314C401.095,49.981 401.295,49.606 401.695,49.189C402.095,48.772 402.295,48.397 402.295,48.064L401.695,19.564C401.695,19.097 401.529,18.506 401.195,17.789C400.862,17.072 400.695,16.531 400.695,16.164C400.695,15.597 400.995,14.989 401.595,14.339C402.195,13.689 403.245,13.364 404.745,13.364C406.945,13.364 408.695,13.897 409.995,14.964C410.729,15.564 411.095,16.197 411.095,16.864C411.095,16.964 411.079,17.114 411.045,17.314L411.045,17.764C411.045,18.064 411.095,18.331 411.195,18.564L421.095,42.564L432.195,17.064C432.329,16.764 432.395,16.414 432.395,16.014C432.395,15.881 432.379,15.681 432.345,15.414L432.345,14.814C432.345,14.047 432.695,13.397 433.395,12.864C433.962,12.431 434.712,12.214 435.645,12.214C437.079,12.214 438.47,12.647 439.82,13.514C441.17,14.381 441.829,15.364 441.795,16.464C441.762,16.997 441.512,17.439 441.045,17.789C440.579,18.139 440.362,18.464 440.395,18.764L442.495,48.264C442.529,48.597 442.795,49.172 443.295,49.989C443.795,50.806 444.045,51.464 444.045,51.964C444.045,52.297 443.929,52.631 443.695,52.964Z" style="fill-rule:nonzero;"/>
        </g>
    </g>
</svg>
