<?xml version="1.0" encoding="UTF-8" standalone="no"?>
<!DOCTYPE svg PUBLIC "-//W3C//DTD SVG 1.1//EN" "http://www.w3.org/Graphics/SVG/1.1/DTD/svg11.dtd">
<svg width="100%" height="100%" viewBox="0 0 512 512" version="1.1" xmlns="http://www.w3.org/2000/svg" xmlns:xlink="http://www.w3.org/1999/xlink" xml:space="preserve" xmlns:serif="http://www.serif.com/" style="fill-rule:evenodd;clip-rule:evenodd;stroke-linejoin:round;stroke-miterlimit:2;">
    <g transform="matrix(14.062919,0,0,14.062919,-1272.189429,-2772.344895)">
        <path d="M117.67,223.658C117.404,224.925 116.504,226.275 114.97,227.708C114.737,228.075 113.82,228.558 112.22,229.158C110.387,229.858 108.804,230.158 107.47,230.058C104.97,229.892 103.004,228.458 101.57,225.758C100.27,223.258 99.62,220.192 99.62,216.558C99.62,212.625 100.354,209.175 101.82,206.208C103.454,202.942 105.637,201.108 108.37,200.708C108.904,200.642 109.42,200.608 109.92,200.608C113.887,200.608 116.07,203.042 116.47,207.908C116.67,210.142 115.787,212.575 113.82,215.208C111.687,218.108 108.954,220.142 105.62,221.308C105.987,222.642 106.27,223.508 106.47,223.908C106.937,224.742 107.57,225.158 108.37,225.158C109.137,225.158 109.954,224.858 110.82,224.258C111.554,223.758 112.054,223.275 112.32,222.808C112.454,222.742 112.587,222.367 112.72,221.683C112.854,221 113.204,220.508 113.77,220.208C113.97,220.108 114.204,220.058 114.47,220.058C115.27,220.058 116.045,220.45 116.795,221.233C117.545,222.017 117.837,222.825 117.67,223.658ZM109.82,206.058C108.487,206.058 107.404,207.008 106.57,208.908C105.47,211.442 105.02,213.942 105.22,216.408C106.787,215.908 108.237,214.742 109.57,212.908C110.904,211.075 111.57,209.442 111.57,208.008C111.57,206.708 110.987,206.058 109.82,206.058Z" style="fill-rule:nonzero;"/>
    </g>
</svg>
